# xmcd
# 
# Track frame offsets:
#     150
#     13440
#     27118
#     50411
#     69364
#     83765
#     101316
#     119461
#     135858
#     155623
#     170686
#     182003
#     211277
# 
# Disc length: 3496
# 
# Revision: 2
# Processed by: cddbd v1.5.2PL0 Copyright (c) Steve Scherf et al.
# Submitted via: fre:ac v1.1beta1pre4
# 
DISCID=a60da60d
DTITLE=Reckless Kelly - Under The Table and Above The Sun
DYEAR=2003
DGENRE=Americana
TTITLE0=Let's Just Fall
TTITLE1=Nobody's Girl
TTITLE2=Desolation Angels
TTITLE3=Everybody
TTITLE4=I Saw It Coming
TTITLE5=Vancouver
TTITLE6=Willamina
TTITLE7=Mersey Beat
TTITLE8=Set Me Free
TTITLE9=Snowfall
TTITLE10=You Don't Want Me Around
TTITLE11=May Peace Find You Tonight
TTITLE12=DATA
EXTD=
EXTT0=
EXTT1=
EXTT2=
EXTT3=
EXTT4=
EXTT5=
EXTT6=
EXTT7=
EXTT8=
EXTT9=
EXTT10=
EXTT11=
EXTT12=
PLAYORDER=
